<?xml version="1.0" standalone="no"?>
<!DOCTYPE svg PUBLIC "-//W3C//DTD SVG 20010904//EN"
 "http://www.w3.org/TR/2001/REC-SVG-20010904/DTD/svg10.dtd">
<svg version="1.0" xmlns="http://www.w3.org/2000/svg"
 width="96.000000pt" height="96.000000pt" viewBox="0 0 96.000000 96.000000"
 preserveAspectRatio="xMidYMid meet">
<metadata>
Created by potrace 1.14, written by Peter Selinger 2001-2017
</metadata>
<g transform="translate(0.000000,96.000000) scale(0.100000,-0.100000)"
fill="#000000" stroke="none">
<path d="M214 898 c-19 -30 -62 -184 -54 -192 6 -6 30 3 61 23 29 18 58 30 66
27 17 -7 8 -26 -13 -26 -15 0 -17 -12 -15 -175 1 -55 6 -115 12 -132 12 -38
79 -99 118 -108 26 -6 27 -8 26 -78 l0 -72 -49 -2 c-79 -3 -96 -10 -102 -43
-6 -29 -7 -29 -88 -32 -64 -2 -81 -6 -81 -18 0 -13 43 -15 320 -18 176 -1 330
0 342 3 15 3 20 10 17 20 -5 12 -24 15 -85 15 -70 0 -79 2 -79 18 0 35 -35 55
-97 56 l-58 1 -3 72 -3 71 35 12 c50 16 86 48 107 94 15 33 19 66 19 179 0
155 10 139 -87 140 -24 0 -43 3 -43 6 0 3 11 24 23 46 22 38 25 40 75 41 59 1
86 16 56 31 -17 8 -38 9 -111 4 -16 -1 -30 -17 -54 -61 -17 -33 -35 -60 -38
-61 -43 -8 -76 -2 -93 15 -10 11 -18 23 -18 28 0 4 25 24 55 45 67 44 61 58
-30 68 -33 4 -74 8 -92 11 -18 2 -35 -1 -39 -8z"/>
<path d="M687 764 c-9 -10 2 -24 19 -24 8 0 14 7 14 15 0 15 -21 21 -33 9z"/>
<path d="M762 644 c4 -21 22 -23 26 -1 2 10 -3 17 -13 17 -10 0 -15 -6 -13
-16z"/>
<path d="M105 587 c-21 -30 -19 -44 9 -62 42 -28 89 14 63 55 -6 11 -14 20
-17 21 -3 0 -13 2 -23 4 -9 2 -24 -6 -32 -18z"/>
<path d="M114 409 c-3 -6 0 -15 7 -20 14 -8 32 9 23 23 -7 11 -22 10 -30 -3z"/>
<path d="M632 404 c4 -21 22 -23 26 -1 2 10 -3 17 -13 17 -10 0 -15 -6 -13
-16z"/>
<path d="M778 389 c-24 -14 -23 -62 2 -84 45 -41 115 30 74 76 -19 21 -49 24
-76 8z"/>
<path d="M227 284 c-13 -13 -7 -24 14 -24 11 0 19 5 17 12 -5 14 -22 21 -31
12z"/>
<path d="M550 260 c-13 -8 -13 -11 1 -25 13 -14 17 -14 27 -2 16 19 -7 40 -28
27z"/>
<path d="M745 210 c-7 -12 2 -30 16 -30 5 0 9 9 9 20 0 21 -15 27 -25 10z"/>
</g>
</svg>
